<svg width="25" height="25" viewBox="0 0 25 25" fill="none" xmlns="http://www.w3.org/2000/svg">
<rect width="25" height="25" fill="#E5E5E5"/>
<g clip-path="url(#clip0_0_1)">
<rect width="1600" height="4235" transform="translate(-254 -3973)" fill="white"/>
<rect width="1600" height="363" transform="translate(-254 -101)" fill="#F1EADC"/>
<g clip-path="url(#clip1_0_1)">
<path d="M21.517 22.6493L21.1588 20.9776C20.4207 17.5332 19.0684 14.2964 17.1388 11.3529V8.64058C18.0276 7.97178 18.6036 6.9084 18.6036 5.71289V4.24805C18.6036 3.84355 18.2757 3.51562 17.8712 3.51562H17.1388V0.732422C17.1388 0.32793 16.8108 0 16.4063 0C16.0018 0 15.6739 0.32793 15.6739 0.732422V3.52339C14.3585 3.6001 13.206 4.29209 12.5001 5.31528C11.7942 4.29209 10.6417 3.6001 9.32626 3.52339V0.732422C9.32626 0.32793 8.99833 0 8.59384 0C8.18935 0 7.86142 0.32793 7.86142 0.732422V3.51562H7.12899C6.7245 3.51562 6.39657 3.84355 6.39657 4.24805V5.71289C6.39657 6.9084 6.97255 7.97178 7.86142 8.64058V11.3529C5.93183 14.2964 4.57943 17.5332 3.84135 20.9776L3.48314 22.6493C3.40658 23.0066 3.60517 23.3658 3.94862 23.4909C6.6975 24.4923 9.5746 25 12.5001 25C15.4256 25 18.3027 24.4923 21.0516 23.4909C21.395 23.3658 21.5936 23.0067 21.517 22.6493ZM15.9181 4.98047H17.1388V5.71289C17.1388 6.92446 16.1531 7.91016 14.9415 7.91016H13.2325V7.66602C13.2325 6.1852 14.4372 4.98047 15.9181 4.98047ZM7.86142 4.98047H9.08212C10.5629 4.98047 11.7677 6.1852 11.7677 7.66602V7.91016H10.0587C8.84711 7.91016 7.86142 6.92446 7.86142 5.71289V4.98047ZM10.0587 9.375H14.9415C15.1923 9.375 15.4372 9.34956 15.6739 9.30132V10.8398H9.32626V9.30132C9.56298 9.34956 9.8079 9.375 10.0587 9.375ZM12.5001 23.5352C9.95859 23.5352 7.4557 23.128 5.05082 22.3244L5.27362 21.2846C5.96127 18.0757 7.21064 15.0566 8.9891 12.3047L16.011 12.3047C17.7895 15.0566 19.0389 18.0757 19.7265 21.2845L19.9493 22.3244C17.5445 23.128 15.0416 23.5352 12.5001 23.5352Z" fill="black"/>
</g>
</g>
<defs>
<clipPath id="clip0_0_1">
<rect width="1600" height="4235" fill="white" transform="translate(-254 -3973)"/>
</clipPath>
<clipPath id="clip1_0_1">
<rect width="25" height="25" fill="white"/>
</clipPath>
</defs>
</svg>
