<svg width="22" height="21" viewBox="0 0 22 21" fill="none" xmlns="http://www.w3.org/2000/svg">
<rect width="22" height="21" fill="#E5E5E5"/>
<g clip-path="url(#clip0_0_1)">
<rect width="1600" height="4235" transform="translate(-1164 -4128)" fill="white"/>
<rect width="1600" height="363" transform="translate(-1164 -256)" fill="#F1EADC"/>
<g clip-path="url(#clip1_0_1)">
<path d="M19.5361 0L3.45801 0C2.10097 0 0.99707 1.1039 0.99707 2.46094V18.5391C0.99707 19.8961 2.10097 21 3.45801 21H19.5361C20.8932 21 21.9971 19.8961 21.9971 18.5391V2.46094C21.9971 1.1039 20.8932 0 19.5361 0ZM20.3564 18.5391C20.3564 18.9914 19.9884 19.3594 19.5361 19.3594H14.6963V13.3711H17.3224L17.6284 10.8281H14.6963V8.08008C14.6963 7.37865 15.2253 6.84961 15.9268 6.84961H17.7725V4.4707C17.2867 4.40213 16.3496 4.30664 15.9268 4.30664C14.9701 4.30664 14.0112 4.71023 13.296 5.41374C12.5591 6.13856 12.1533 7.08801 12.1533 8.08729V10.8281H9.4873V13.3711H12.1533V19.3594H3.45801C3.00571 19.3594 2.6377 18.9914 2.6377 18.5391V2.46094C2.6377 2.00864 3.00571 1.64062 3.45801 1.64062H19.5361C19.9884 1.64062 20.3564 2.00864 20.3564 2.46094V18.5391Z" fill="black"/>
</g>
</g>
<defs>
<clipPath id="clip0_0_1">
<rect width="1600" height="4235" fill="white" transform="translate(-1164 -4128)"/>
</clipPath>
<clipPath id="clip1_0_1">
<rect width="21" height="21" fill="white" transform="translate(0.99707)"/>
</clipPath>
</defs>
</svg>
