<svg width="23" height="23" viewBox="0 0 23 23" fill="none" xmlns="http://www.w3.org/2000/svg">
<g clip-path="url(#clip0_8_3451)">
<path d="M16.6065 0.5H7.38773C3.8639 0.5 0.99707 3.36683 0.99707 6.89065V16.1093C0.99707 19.6332 3.8639 22.5 7.38773 22.5H16.6064C20.1302 22.5 22.9971 19.6332 22.9971 16.1094V6.89065C22.9971 3.36683 20.1302 0.5 16.6065 0.5ZM21.2783 16.1093C21.2783 18.6854 19.1825 20.7812 16.6065 20.7812H7.38773C4.81162 20.7812 2.71582 18.6854 2.71582 16.1094V6.89065C2.71582 4.31455 4.81162 2.21875 7.38773 2.21875H16.6064C19.1825 2.21875 21.2783 4.31455 21.2783 6.89065V16.1093Z" fill="black"/>
<path d="M11.9971 5.57031C8.72741 5.57031 6.06738 8.23034 6.06738 11.5C6.06738 14.7697 8.72741 17.4297 11.9971 17.4297C15.2667 17.4297 17.9268 14.7697 17.9268 11.5C17.9268 8.23034 15.2667 5.57031 11.9971 5.57031ZM11.9971 15.7109C9.67517 15.7109 7.78613 13.8219 7.78613 11.5C7.78613 9.1781 9.67517 7.28906 11.9971 7.28906C14.319 7.28906 16.208 9.1781 16.208 11.5C16.208 13.8219 14.319 15.7109 11.9971 15.7109Z" fill="black"/>
<path d="M18.0127 6.34375C18.4873 6.34375 18.8721 5.95899 18.8721 5.48437C18.8721 5.00976 18.4873 4.625 18.0127 4.625C17.5381 4.625 17.1533 5.00976 17.1533 5.48437C17.1533 5.95899 17.5381 6.34375 18.0127 6.34375Z" fill="black"/>
</g>
<defs>
<clipPath id="clip0_8_3451">
<rect width="22" height="22" fill="white" transform="translate(0.99707 0.5)"/>
</clipPath>
</defs>
</svg>
