<svg width="24" height="23" viewBox="0 0 24 23" fill="none" xmlns="http://www.w3.org/2000/svg">
<rect width="24" height="23" fill="#E5E5E5"/>
<g clip-path="url(#clip0_0_1)">
<rect width="1600" height="4235" transform="translate(-1197 -4127)" fill="white"/>
<rect width="1600" height="363" transform="translate(-1197 -255)" fill="#F1EADC"/>
<g clip-path="url(#clip1_0_1)">
<path d="M21.2682 5.16525L21.2568 5.12109C22.2313 4.53688 23.0182 3.5738 23.3682 2.4707C22.4554 3.01367 21.3875 3.42561 20.3135 3.63867C19.4522 2.7211 18.3031 2.15625 16.9443 2.15625C14.34 2.15625 12.1826 4.26475 12.1826 6.87305C12.1826 7.24419 12.235 7.60752 12.3174 7.95117V7.99609C8.43582 7.77436 4.92135 5.80031 2.61426 2.96484C2.20938 3.66248 1.98535 4.65939 1.98535 5.52539C1.98535 6.87305 2.78559 8.67805 4.05176 9.52344V9.61328C3.29572 9.58278 2.52136 9.06195 1.89551 8.71484C1.89551 8.73546 1.92291 8.76026 1.92291 8.78088C1.92291 11.0696 3.60047 13.0436 5.75879 13.4766C5.38266 13.5761 4.85289 13.6562 4.45605 13.6562C4.15068 13.6562 3.84584 13.5765 3.55762 13.5215C4.15809 15.3978 5.89355 16.6211 7.95996 16.6211V16.666C6.35153 17.913 4.31284 18.7773 2.12012 18.7773C1.73922 18.7773 1.2666 18.7324 0.99707 18.6875C3.08329 20.0277 5.56338 20.8437 8.22949 20.8437C16.9072 20.8437 21.6611 13.7012 21.6611 7.45703V6.82812C22.5841 6.16144 23.3657 5.26098 23.9971 4.3125C23.9971 4.3125 22.341 5.09724 21.2682 5.16525ZM19.8643 7.45703C19.8643 8.80523 19.6002 10.221 19.1006 11.5512C18.5755 12.9492 17.8198 14.2107 16.8544 15.3005C15.3404 17.0096 12.6152 19.0469 8.22949 19.0469C8.10061 19.0469 7.97195 19.0446 7.8433 19.0402C8.26673 18.7945 8.67368 18.5211 9.0609 18.2209L9.75683 17.6814V16.8008V16.6211V14.8242L9.01657 14.816C8.20712 14.807 7.55566 14.1483 7.55566 13.3388V11.8696L6.58396 11.6502C6.15397 11.5531 5.84863 11.1711 5.84863 10.7303V9.61328V9.47851L5.82617 8.5626L5.02706 8.02907C4.68197 7.73874 4.36922 7.32406 4.14641 6.87529C6.50431 8.59481 9.30465 9.62379 12.2149 9.79005L14.1143 9.89853V7.99609V7.95117V7.73891L14.0648 7.5325C14.0082 7.29625 13.9795 7.07439 13.9795 6.87305C13.9795 6.09931 14.2882 5.3687 14.8487 4.81576C15.4126 4.25949 16.1569 3.95312 16.9443 3.95312C17.7405 3.95312 18.4333 4.26106 19.0033 4.86841L19.4618 5.35684L19.5172 5.57112L19.5286 5.61528L19.8643 6.91262V7.45703Z" fill="black"/>
</g>
</g>
<defs>
<clipPath id="clip0_0_1">
<rect width="1600" height="4235" fill="white" transform="translate(-1197 -4127)"/>
</clipPath>
<clipPath id="clip1_0_1">
<rect width="23" height="23" fill="white" transform="translate(0.99707)"/>
</clipPath>
</defs>
</svg>
